<svg width="376" height="623" viewBox="0 0 376 623" fill="none" xmlns="http://www.w3.org/2000/svg">
<g filter="url(#filter0_b_2_82)">
<g clip-path="url(#clip0_2_82)">
<rect width="376" height="623" rx="39" fill="url(#paint0_linear_2_82)"/>
<g filter="url(#filter1_b_2_82)">
<rect x="33" y="544" width="144" height="60" rx="16" fill="url(#paint1_linear_2_82)"/>
<path d="M96.664 573.544C96.664 577.149 97.304 579.976 98.584 582.024C99.864 584.051 101.997 585.064 104.984 585.064C107.971 585.064 110.104 584.04 111.384 581.992C112.664 579.944 113.304 577.128 113.304 573.544C113.304 569.981 112.664 567.187 111.384 565.16C110.104 563.112 107.971 562.088 104.984 562.088C101.997 562.088 99.864 563.101 98.584 565.128C97.304 567.155 96.664 569.96 96.664 573.544ZM109.656 573.544C109.656 576.147 109.336 578.141 108.696 579.528C108.056 580.915 106.819 581.608 104.984 581.608C103.128 581.608 101.88 580.915 101.24 579.528C100.6 578.141 100.28 576.147 100.28 573.544C100.28 570.963 100.6 568.989 101.24 567.624C101.88 566.259 103.128 565.576 104.984 565.576C106.819 565.576 108.056 566.269 108.696 567.656C109.336 569.021 109.656 570.984 109.656 573.544Z" fill="white" style="mix-blend-mode:overlay"/>
<rect x="33.5" y="544.5" width="143" height="59" rx="15.5" stroke="url(#paint2_linear_2_82)"/>
</g>
<g filter="url(#filter2_i_2_82)">
<rect x="279" y="384" width="62" height="96" rx="12" fill="url(#paint3_linear_2_82)"/>
<path d="M317.812 433.144H311.412V439.608H307.86V433.144H301.492V429.784H307.86V423.288H311.412V429.784H317.812V433.144Z" fill="black" fill-opacity="0.7" style="mix-blend-mode:overlay"/>
<rect x="279.5" y="384.5" width="61" height="95" rx="11.5" stroke="url(#paint4_linear_2_82)"/>
</g>
<g filter="url(#filter3_b_2_82)">
<rect x="197.5" y="542.5" width="61" height="61" rx="15.5" fill="url(#paint5_linear_2_82)" stroke="url(#paint6_linear_2_82)"/>
<rect x="226.5" y="571.5" width="3.5" height="3.5" rx="1.75" fill="url(#paint7_linear_2_82)" stroke="url(#paint8_linear_2_82)"/>
</g>
<g filter="url(#filter4_b_2_82)">
<rect x="197" y="454" width="62" height="60" rx="16" fill="url(#paint9_linear_2_82)"/>
<path d="M228.1 471.704C229.593 471.704 230.873 471.971 231.94 472.504C233.007 473.016 233.807 473.731 234.34 474.648C234.895 475.565 235.172 476.589 235.172 477.72C235.172 479.149 234.767 480.344 233.956 481.304C233.167 482.243 232.047 482.808 230.596 483V483.16C232.153 483.608 233.369 484.28 234.244 485.176C235.14 486.051 235.588 487.267 235.588 488.824C235.588 490.723 234.959 492.269 233.7 493.464C232.441 494.637 230.639 495.224 228.292 495.224C225.881 495.224 223.94 494.616 222.468 493.4C220.996 492.163 220.153 490.339 219.94 487.928H223.556C223.684 489.208 224.143 490.232 224.932 491C225.721 491.747 226.788 492.12 228.132 492.12C229.391 492.12 230.351 491.789 231.012 491.128C231.695 490.467 232.036 489.613 232.036 488.568C232.036 487.309 231.545 486.349 230.564 485.688C229.604 485.027 228.207 484.696 226.372 484.696H225.508V481.688H226.372C229.849 481.731 231.588 480.547 231.588 478.136C231.588 477.091 231.268 476.269 230.628 475.672C229.988 475.075 229.113 474.776 228.004 474.776C226.895 474.776 225.967 475.117 225.22 475.8C224.473 476.461 224.025 477.432 223.876 478.712H220.292C220.441 476.493 221.188 474.776 222.532 473.56C223.876 472.323 225.732 471.704 228.1 471.704Z" fill="white" style="mix-blend-mode:overlay"/>
<rect x="197.5" y="454.5" width="61" height="59" rx="15.5" stroke="url(#paint10_linear_2_82)"/>
</g>
<g filter="url(#filter5_b_2_82)">
<rect x="33" y="454" width="62" height="60" rx="16" fill="url(#paint11_linear_2_82)"/>
<path d="M59.416 475.832V472.408H66.648V495H62.808V475.832H59.416Z" fill="white" style="mix-blend-mode:overlay"/>
<rect x="33.5" y="454.5" width="61" height="59" rx="15.5" stroke="url(#paint12_linear_2_82)"/>
</g>
<g filter="url(#filter6_b_2_82)">
<rect x="115" y="454" width="62" height="60" rx="16" fill="url(#paint13_linear_2_82)"/>
<path d="M137.78 492.152C141.236 489.784 143.999 487.469 146.068 485.208C148.159 482.925 149.204 480.813 149.204 478.872C149.204 477.72 148.916 476.803 148.34 476.12C147.785 475.437 146.879 475.096 145.62 475.096C144.319 475.096 143.337 475.523 142.676 476.376C142.015 477.208 141.641 478.403 141.556 479.96H138.004C138.153 477.379 138.943 475.405 140.372 474.04C141.823 472.675 143.668 471.992 145.908 471.992C148.105 471.992 149.823 472.579 151.06 473.752C152.319 474.904 152.948 476.504 152.948 478.552C152.948 480.195 152.436 481.859 151.412 483.544C150.409 485.229 149.129 486.787 147.572 488.216C146.015 489.624 144.404 490.84 142.74 491.864H153.46V494.84H137.78V492.152Z" fill="white" style="mix-blend-mode:overlay"/>
<rect x="115.5" y="454.5" width="61" height="59" rx="15.5" stroke="url(#paint14_linear_2_82)"/>
</g>
<g filter="url(#filter7_i_2_82)">
<rect x="279" y="302" width="62" height="60" rx="12" fill="url(#paint15_linear_2_82)"/>
<path d="M314.396 329.88V332.952H301.212V329.88H314.396Z" fill="black" fill-opacity="0.7" style="mix-blend-mode:overlay"/>
<rect x="279.5" y="302.5" width="61" height="59" rx="11.5" stroke="url(#paint16_linear_2_82)"/>
</g>
<g filter="url(#filter8_b_2_82)">
<rect x="197" y="302" width="62" height="60" rx="16" fill="url(#paint17_linear_2_82)"/>
<path d="M223.664 336.472C223.835 337.688 224.251 338.627 224.912 339.288C225.595 339.949 226.512 340.28 227.664 340.28C229.285 340.28 230.491 339.64 231.28 338.36C232.091 337.059 232.496 335.021 232.496 332.248L232.464 331.16C232.123 332.312 231.408 333.24 230.32 333.944C229.253 334.627 228.005 334.968 226.576 334.968C224.357 334.968 222.619 334.307 221.36 332.984C220.101 331.64 219.472 329.773 219.472 327.384C219.472 325.933 219.76 324.632 220.336 323.48C220.912 322.328 221.776 321.421 222.928 320.76C224.08 320.077 225.499 319.736 227.184 319.736C230.448 319.736 232.688 320.739 233.904 322.744C235.141 324.728 235.76 327.48 235.76 331C235.76 334.989 235.131 338.029 233.872 340.12C232.635 342.211 230.565 343.256 227.664 343.256C225.424 343.256 223.664 342.627 222.384 341.368C221.125 340.088 220.4 338.456 220.208 336.472H223.664ZM232.112 327.768C232.112 326.381 231.707 325.229 230.896 324.312C230.107 323.373 228.912 322.904 227.312 322.904C225.989 322.904 224.923 323.299 224.112 324.088C223.323 324.877 222.928 325.987 222.928 327.416C222.928 328.931 223.323 330.093 224.112 330.904C224.923 331.715 226.021 332.12 227.408 332.12C228.219 332.12 228.976 331.96 229.68 331.64C230.405 331.299 230.992 330.808 231.44 330.168C231.888 329.507 232.112 328.707 232.112 327.768Z" fill="white" style="mix-blend-mode:overlay"/>
<rect x="197.5" y="302.5" width="61" height="59" rx="15.5" stroke="url(#paint18_linear_2_82)"/>
</g>
<g filter="url(#filter9_b_2_82)">
<rect x="33" y="302" width="62" height="60" rx="16" fill="url(#paint19_linear_2_82)"/>
<path d="M70.892 323.032L62.476 343H58.636L67.18 323.448H55.98V320.28H70.892V323.032Z" fill="white" style="mix-blend-mode:overlay"/>
<rect x="33.5" y="302.5" width="61" height="59" rx="15.5" stroke="url(#paint20_linear_2_82)"/>
</g>
<g filter="url(#filter10_b_2_82)">
<rect x="115" y="302" width="62" height="60" rx="16" fill="url(#paint21_linear_2_82)"/>
<path d="M137.74 325.656C137.74 324.547 138.039 323.533 138.636 322.616C139.233 321.699 140.119 320.963 141.292 320.408C142.487 319.853 143.916 319.576 145.58 319.576C147.244 319.576 148.663 319.853 149.836 320.408C151.031 320.963 151.927 321.699 152.524 322.616C153.143 323.533 153.452 324.547 153.452 325.656C153.452 326.893 153.121 327.96 152.46 328.856C151.82 329.752 150.86 330.403 149.58 330.808C151.009 331.256 152.108 331.981 152.876 332.984C153.644 333.965 154.028 335.171 154.028 336.6C154.028 338.797 153.249 340.515 151.692 341.752C150.135 342.968 148.097 343.576 145.58 343.576C143.063 343.576 141.025 342.968 139.468 341.752C137.932 340.515 137.164 338.797 137.164 336.6C137.164 335.171 137.548 333.965 138.316 332.984C139.084 331.981 140.183 331.256 141.612 330.808C140.332 330.403 139.361 329.752 138.7 328.856C138.06 327.96 137.74 326.893 137.74 325.656ZM141.356 326.232C141.356 327.384 141.729 328.28 142.476 328.92C143.244 329.539 144.279 329.848 145.58 329.848C146.881 329.848 147.916 329.539 148.684 328.92C149.452 328.28 149.836 327.384 149.836 326.232C149.836 325.08 149.441 324.184 148.652 323.544C147.884 322.904 146.86 322.584 145.58 322.584C144.3 322.584 143.276 322.904 142.508 323.544C141.74 324.184 141.356 325.08 141.356 326.232ZM140.716 336.408C140.716 337.709 141.153 338.733 142.028 339.48C142.903 340.205 144.087 340.568 145.58 340.568C147.073 340.568 148.257 340.205 149.132 339.48C150.007 338.733 150.444 337.709 150.444 336.408C150.444 335.085 149.985 334.093 149.068 333.432C148.172 332.749 147.009 332.408 145.58 332.408C144.172 332.408 143.009 332.749 142.092 333.432C141.175 334.115 140.716 335.107 140.716 336.408Z" fill="white" style="mix-blend-mode:overlay"/>
<rect x="115.5" y="302.5" width="61" height="59" rx="15.5" stroke="url(#paint22_linear_2_82)"/>
</g>
<g filter="url(#filter11_b_2_82)">
<rect x="197" y="378" width="62" height="60" rx="16" fill="url(#paint23_linear_2_82)"/>
<path d="M232.048 402.488C231.664 399.971 230.352 398.712 228.112 398.712C226.491 398.712 225.275 399.363 224.464 400.664C223.653 401.944 223.248 403.96 223.248 406.712L223.28 407.8C223.6 406.648 224.293 405.731 225.36 405.048C226.427 404.365 227.685 404.024 229.136 404.024C231.355 404.024 233.093 404.685 234.352 406.008C235.611 407.331 236.24 409.197 236.24 411.608C236.24 413.059 235.952 414.36 235.376 415.512C234.8 416.643 233.936 417.549 232.784 418.232C231.632 418.893 230.213 419.224 228.528 419.224C225.264 419.224 223.024 418.211 221.808 416.184C220.592 414.157 219.984 411.373 219.984 407.832C219.984 403.779 220.635 400.749 221.936 398.744C223.237 396.739 225.371 395.736 228.336 395.736C230.555 395.736 232.251 396.365 233.424 397.624C234.619 398.883 235.312 400.504 235.504 402.488H232.048ZM223.6 411.192C223.6 412.579 224.005 413.741 224.816 414.68C225.627 415.597 226.821 416.056 228.4 416.056C229.744 416.056 230.811 415.661 231.6 414.872C232.411 414.083 232.816 412.984 232.816 411.576C232.816 410.061 232.411 408.899 231.6 408.088C230.789 407.277 229.691 406.872 228.304 406.872C227.045 406.872 225.947 407.245 225.008 407.992C224.069 408.739 223.6 409.805 223.6 411.192Z" fill="white" style="mix-blend-mode:overlay"/>
<rect x="197.5" y="378.5" width="61" height="59" rx="15.5" stroke="url(#paint24_linear_2_82)"/>
</g>
<g filter="url(#filter12_b_2_82)">
<rect x="33" y="378" width="62" height="60" rx="16" fill="url(#paint25_linear_2_82)"/>
<path d="M54.62 414.136V411.064L65.852 396.216H69.756V410.936H72.924V414.136H69.756V419H66.076V414.136H54.62ZM66.332 400.568L58.396 410.936H66.332V400.568Z" fill="white" style="mix-blend-mode:overlay"/>
<rect x="33.5" y="378.5" width="61" height="59" rx="15.5" stroke="url(#paint26_linear_2_82)"/>
</g>
<g filter="url(#filter13_b_2_82)">
<rect x="115" y="378" width="62" height="60" rx="16" fill="url(#paint27_linear_2_82)"/>
<path d="M153.312 399.288H142.144V406.008C142.656 405.347 143.381 404.824 144.32 404.44C145.259 404.035 146.293 403.832 147.424 403.832C149.003 403.832 150.315 404.173 151.36 404.856C152.405 405.517 153.173 406.403 153.664 407.512C154.176 408.621 154.432 409.848 154.432 411.192C154.432 413.56 153.771 415.48 152.448 416.952C151.125 418.403 149.205 419.128 146.688 419.128C144.32 419.128 142.411 418.499 140.96 417.24C139.509 415.981 138.72 414.307 138.592 412.216H142.176C142.368 413.368 142.837 414.275 143.584 414.936C144.352 415.597 145.323 415.928 146.496 415.928C147.947 415.928 149.035 415.491 149.76 414.616C150.485 413.741 150.848 412.579 150.848 411.128C150.848 409.763 150.475 408.696 149.728 407.928C148.981 407.139 147.915 406.744 146.528 406.744C145.547 406.744 144.683 406.957 143.936 407.384C143.211 407.811 142.677 408.376 142.336 409.08H138.784V396.056H153.312V399.288Z" fill="white" style="mix-blend-mode:overlay"/>
<rect x="115.5" y="378.5" width="61" height="59" rx="15.5" stroke="url(#paint28_linear_2_82)"/>
</g>
<g filter="url(#filter14_i_2_82)">
<rect x="279.5" y="218.5" width="61" height="61" rx="11.5" fill="url(#paint29_linear_2_82)" stroke="url(#paint30_linear_2_82)"/>
<path d="M313.4 245.709C314.007 245.242 314.894 245.416 315.271 246.084L315.306 246.144C315.67 246.788 315.369 247.606 314.675 247.863C313.628 248.251 313.628 249.735 314.677 250.115C315.371 250.367 315.674 251.181 315.315 251.825L315.244 251.953C314.867 252.63 313.973 252.807 313.366 252.325C312.473 251.616 311.178 252.397 311.349 253.525C311.465 254.294 310.872 255 310.093 255H310.061C309.282 255 308.683 254.311 308.789 253.54C308.948 252.39 307.619 251.636 306.715 252.363C306.099 252.859 305.186 252.685 304.796 251.997L304.697 251.824C304.331 251.179 304.636 250.358 305.33 250.1C306.368 249.713 306.381 248.238 305.342 247.855C304.654 247.602 304.355 246.793 304.713 246.153L304.759 246.072C305.137 245.394 306.028 245.21 306.644 245.681L306.688 245.714C307.617 246.425 308.939 245.646 308.771 244.489C308.658 243.704 309.272 243 310.065 243C310.855 243 311.464 243.712 311.346 244.494C311.173 245.633 312.486 246.413 313.4 245.709Z" fill="black" fill-opacity="0.7" style="mix-blend-mode:overlay"/>
</g>
<g filter="url(#filter15_i_2_82)">
<rect x="197.5" y="218.5" width="61" height="61" rx="11.5" fill="url(#paint31_linear_2_82)" stroke="url(#paint32_linear_2_82)"/>
<path d="M230.738 236C231.858 236 232.656 237.089 232.319 238.157L224.844 261.841C224.626 262.531 223.986 263 223.262 263C222.142 263 221.344 261.911 221.681 260.843L229.156 237.159C229.374 236.469 230.014 236 230.738 236Z" fill="black" fill-opacity="0.7" style="mix-blend-mode:overlay"/>
</g>
<g filter="url(#filter16_b_2_82)">
<rect x="33" y="218" width="62" height="62" rx="16" fill="url(#paint33_linear_2_82)"/>
<path d="M58.68 255.104H49.144L47.416 260H43.512L51.832 237.76H56.024L64.312 260H60.408L58.68 255.104ZM57.656 252.288L53.912 241.728L50.168 252.288H57.656ZM74.8605 242.144C77.1432 242.144 79.0312 242.752 80.5245 243.968C82.0178 245.163 82.9458 246.795 83.3085 248.864H79.4365C79.2232 247.755 78.7005 246.891 77.8685 246.272C77.0578 245.632 76.0338 245.312 74.7965 245.312C73.3885 245.312 72.2152 245.813 71.2765 246.816C70.3378 247.797 69.8685 249.248 69.8685 251.168C69.8685 253.088 70.3378 254.549 71.2765 255.552C72.2152 256.555 73.3885 257.056 74.7965 257.056C76.0338 257.056 77.0578 256.736 77.8685 256.096C78.7005 255.456 79.2232 254.581 79.4365 253.472H83.3085C82.9458 255.541 82.0178 257.184 80.5245 258.4C79.0312 259.616 77.1432 260.224 74.8605 260.224C73.1538 260.224 71.6392 259.861 70.3165 259.136C69.0152 258.411 67.9912 257.365 67.2445 256C66.4978 254.635 66.1245 253.024 66.1245 251.168C66.1245 249.333 66.4978 247.733 67.2445 246.368C67.9912 245.003 69.0152 243.957 70.3165 243.232C71.6392 242.507 73.1538 242.144 74.8605 242.144Z" fill="black" style="mix-blend-mode:overlay"/>
<rect x="33.5" y="218.5" width="61" height="61" rx="15.5" stroke="url(#paint34_linear_2_82)"/>
</g>
<g filter="url(#filter17_b_2_82)">
<rect x="115.5" y="219.526" width="61" height="59.9738" rx="15.5" fill="url(#paint35_linear_2_82)" stroke="url(#paint36_linear_2_82)"/>
<path d="M140.707 235.204H155.211C155.477 235.204 155.732 235.284 155.92 235.425C156.108 235.567 156.214 235.759 156.214 235.959V248.032C156.214 248.232 156.108 248.424 155.92 248.565C155.732 248.707 155.477 248.786 155.211 248.786H140.707C140.542 248.786 140.38 248.755 140.234 248.697C140.089 248.638 139.965 248.554 139.873 248.45L134.526 242.414C134.416 242.29 134.357 242.144 134.357 241.995C134.357 241.846 134.416 241.7 134.526 241.576L139.873 235.54C139.965 235.437 140.089 235.352 140.234 235.294C140.38 235.235 140.542 235.204 140.707 235.204ZM141.244 236.713L136.565 241.995L141.244 247.277H154.208V236.713H141.244ZM147.19 240.928L150.025 238.794L151.444 239.861L148.607 241.995L151.444 244.129L150.025 245.197L147.19 243.062L144.354 245.197L142.935 244.129L145.772 241.995L142.935 239.861L144.354 238.794L147.19 240.928Z" fill="black" style="mix-blend-mode:overlay"/>
</g>
<path d="M276.344 141.896V146.504H250.808V141.896H276.344ZM276.344 152.792V157.4H250.808V152.792H276.344ZM291.868 157.496C292.188 159.096 292.876 160.312 293.932 161.144C294.988 161.976 296.412 162.392 298.204 162.392C300.476 162.392 302.14 161.496 303.196 159.704C304.252 157.912 304.78 154.856 304.78 150.536C304.012 151.624 302.924 152.472 301.516 153.08C300.14 153.656 298.636 153.944 297.004 153.944C294.924 153.944 293.036 153.528 291.34 152.696C289.644 151.832 288.3 150.568 287.308 148.904C286.348 147.208 285.868 145.16 285.868 142.76C285.868 139.24 286.892 136.44 288.94 134.36C291.02 132.248 293.868 131.192 297.484 131.192C301.836 131.192 304.924 132.648 306.748 135.56C308.604 138.44 309.532 142.872 309.532 148.856C309.532 152.984 309.18 156.36 308.476 158.984C307.804 161.608 306.62 163.592 304.924 164.936C303.228 166.28 300.876 166.952 297.868 166.952C294.444 166.952 291.804 166.056 289.948 164.264C288.092 162.472 287.052 160.216 286.828 157.496H291.868ZM297.964 149.336C299.884 149.336 301.388 148.744 302.476 147.56C303.596 146.344 304.156 144.744 304.156 142.76C304.156 140.552 303.564 138.84 302.38 137.624C301.228 136.376 299.644 135.752 297.628 135.752C295.612 135.752 294.012 136.392 292.828 137.672C291.676 138.92 291.1 140.568 291.1 142.616C291.1 144.568 291.66 146.184 292.78 147.464C293.932 148.712 295.66 149.336 297.964 149.336ZM318.545 159.56C321.617 156.904 324.033 154.728 325.793 153.032C327.585 151.304 329.073 149.512 330.257 147.656C331.441 145.8 332.033 143.944 332.033 142.088C332.033 140.168 331.569 138.664 330.641 137.576C329.745 136.488 328.321 135.944 326.369 135.944C324.481 135.944 323.009 136.552 321.953 137.768C320.929 138.952 320.385 140.552 320.321 142.568H315.041C315.137 138.92 316.225 136.136 318.305 134.216C320.417 132.264 323.089 131.288 326.321 131.288C329.809 131.288 332.529 132.248 334.481 134.168C336.465 136.088 337.457 138.648 337.457 141.848C337.457 144.152 336.865 146.376 335.681 148.52C334.529 150.632 333.137 152.536 331.505 154.232C329.905 155.896 327.857 157.832 325.361 160.04L323.201 161.96H338.417V166.52H315.089V162.536L318.545 159.56Z" fill="#424242"/>
<path d="M204.464 97.464C202.928 95.96 201.728 94.048 200.864 91.728C200.016 89.408 199.592 86.904 199.592 84.216C199.592 81.464 200.04 78.896 200.936 76.512C201.848 74.112 203.144 72.136 204.824 70.584H207.104V70.8C205.312 72.48 203.96 74.504 203.048 76.872C202.152 79.224 201.704 81.672 201.704 84.216C201.704 86.696 202.128 89.064 202.976 91.32C203.84 93.576 205.096 95.552 206.744 97.248V97.464H204.464ZM208.858 89.136V87.48L217.282 75.816H219.898V87.24H222.298V89.136H219.898V93H217.738V89.136H208.858ZM217.834 78.096L211.378 87.24H217.834V78.096ZM234.152 79.776C233.8 78 232.704 77.112 230.864 77.112C229.44 77.112 228.376 77.664 227.672 78.768C226.968 79.856 226.624 81.656 226.64 84.168C227.008 83.336 227.616 82.688 228.464 82.224C229.328 81.744 230.288 81.504 231.344 81.504C232.992 81.504 234.304 82.016 235.28 83.04C236.272 84.064 236.768 85.48 236.768 87.288C236.768 88.376 236.552 89.352 236.12 90.216C235.704 91.08 235.064 91.768 234.2 92.28C233.352 92.792 232.32 93.048 231.104 93.048C229.456 93.048 228.168 92.68 227.24 91.944C226.312 91.208 225.664 90.192 225.296 88.896C224.928 87.6 224.744 86 224.744 84.096C224.744 78.224 226.792 75.288 230.888 75.288C232.456 75.288 233.688 75.712 234.584 76.56C235.48 77.408 236.008 78.48 236.168 79.776H234.152ZM230.888 83.352C230.2 83.352 229.552 83.496 228.944 83.784C228.336 84.056 227.84 84.48 227.456 85.056C227.088 85.616 226.904 86.304 226.904 87.12C226.904 88.336 227.256 89.328 227.96 90.096C228.664 90.848 229.672 91.224 230.984 91.224C232.104 91.224 232.992 90.88 233.648 90.192C234.32 89.488 234.656 88.544 234.656 87.36C234.656 86.112 234.336 85.136 233.696 84.432C233.056 83.712 232.12 83.352 230.888 83.352ZM248.235 70.392L241.659 97.08H239.499L246.051 70.392H248.235ZM262.193 77.544H253.769V83.016C254.137 82.504 254.681 82.088 255.401 81.768C256.121 81.432 256.897 81.264 257.729 81.264C259.057 81.264 260.137 81.544 260.969 82.104C261.801 82.648 262.393 83.36 262.745 84.24C263.113 85.104 263.297 86.024 263.297 87C263.297 88.152 263.081 89.184 262.649 90.096C262.217 91.008 261.553 91.728 260.657 92.256C259.777 92.784 258.681 93.048 257.369 93.048C255.689 93.048 254.329 92.616 253.289 91.752C252.249 90.888 251.617 89.736 251.393 88.296H253.529C253.737 89.208 254.177 89.92 254.849 90.432C255.521 90.944 256.369 91.2 257.393 91.2C258.657 91.2 259.609 90.824 260.249 90.072C260.889 89.304 261.209 88.296 261.209 87.048C261.209 85.8 260.889 84.84 260.249 84.168C259.609 83.48 258.665 83.136 257.417 83.136C256.569 83.136 255.825 83.344 255.185 83.76C254.561 84.16 254.105 84.712 253.817 85.416H251.753V75.624H262.193V77.544ZM266.199 84.144C266.199 81.392 266.647 79.248 267.543 77.712C268.439 76.16 270.007 75.384 272.247 75.384C274.471 75.384 276.031 76.16 276.927 77.712C277.823 79.248 278.271 81.392 278.271 84.144C278.271 86.944 277.823 89.12 276.927 90.672C276.031 92.224 274.471 93 272.247 93C270.007 93 268.439 92.224 267.543 90.672C266.647 89.12 266.199 86.944 266.199 84.144ZM276.111 84.144C276.111 82.752 276.015 81.576 275.823 80.616C275.647 79.64 275.271 78.856 274.695 78.264C274.135 77.672 273.319 77.376 272.247 77.376C271.159 77.376 270.327 77.672 269.751 78.264C269.191 78.856 268.815 79.64 268.623 80.616C268.447 81.576 268.359 82.752 268.359 84.144C268.359 85.584 268.447 86.792 268.623 87.768C268.815 88.744 269.191 89.528 269.751 90.12C270.327 90.712 271.159 91.008 272.247 91.008C273.319 91.008 274.135 90.712 274.695 90.12C275.271 89.528 275.647 88.744 275.823 87.768C276.015 86.792 276.111 85.584 276.111 84.144ZM280.933 97.464V97.248C282.581 95.552 283.829 93.576 284.677 91.32C285.541 89.064 285.973 86.696 285.973 84.216C285.973 81.672 285.517 79.224 284.605 76.872C283.709 74.504 282.365 72.48 280.573 70.8V70.584H282.853C284.533 72.136 285.821 74.112 286.717 76.512C287.629 78.896 288.085 81.464 288.085 84.216C288.085 86.904 287.653 89.408 286.789 91.728C285.941 94.048 284.749 95.96 283.213 97.464H280.933ZM299.968 76.92L300.832 78.48L297.496 79.872L300.856 81.24L299.944 82.848L297.04 80.736L297.424 84.36H295.624L295.984 80.736L293.08 82.872L292.144 81.24L295.48 79.848L292.144 78.504L293.032 76.896L296.008 79.032L295.624 75.384H297.448L297.04 79.032L299.968 76.92ZM303.264 77.64V75.648H307.776V93H305.568V77.64H303.264ZM311.527 84.144C311.527 81.392 311.975 79.248 312.871 77.712C313.767 76.16 315.335 75.384 317.575 75.384C319.799 75.384 321.359 76.16 322.255 77.712C323.151 79.248 323.599 81.392 323.599 84.144C323.599 86.944 323.151 89.12 322.255 90.672C321.359 92.224 319.799 93 317.575 93C315.335 93 313.767 92.224 312.871 90.672C311.975 89.12 311.527 86.944 311.527 84.144ZM321.439 84.144C321.439 82.752 321.343 81.576 321.151 80.616C320.975 79.64 320.599 78.856 320.023 78.264C319.463 77.672 318.647 77.376 317.575 77.376C316.487 77.376 315.655 77.672 315.079 78.264C314.519 78.856 314.143 79.64 313.951 80.616C313.775 81.576 313.687 82.752 313.687 84.144C313.687 85.584 313.775 86.792 313.951 87.768C314.143 88.744 314.519 89.528 315.079 90.12C315.655 90.712 316.487 91.008 317.575 91.008C318.647 91.008 319.463 90.712 320.023 90.12C320.599 89.528 320.975 88.744 321.151 87.768C321.343 86.792 321.439 85.584 321.439 84.144ZM326.597 84.144C326.597 81.392 327.045 79.248 327.941 77.712C328.837 76.16 330.405 75.384 332.645 75.384C334.869 75.384 336.429 76.16 337.325 77.712C338.221 79.248 338.669 81.392 338.669 84.144C338.669 86.944 338.221 89.12 337.325 90.672C336.429 92.224 334.869 93 332.645 93C330.405 93 328.837 92.224 327.941 90.672C327.045 89.12 326.597 86.944 326.597 84.144ZM336.509 84.144C336.509 82.752 336.413 81.576 336.221 80.616C336.045 79.64 335.669 78.856 335.093 78.264C334.533 77.672 333.717 77.376 332.645 77.376C331.557 77.376 330.725 77.672 330.149 78.264C329.589 78.856 329.213 79.64 329.021 80.616C328.845 81.576 328.757 82.752 328.757 84.144C328.757 85.584 328.845 86.792 329.021 87.768C329.213 88.744 329.589 89.528 330.149 90.12C330.725 90.712 331.557 91.008 332.645 91.008C333.717 91.008 334.533 90.712 335.093 90.12C335.669 89.528 336.045 88.744 336.221 87.768C336.413 86.792 336.509 85.584 336.509 84.144Z" fill="#818181"/>
<g filter="url(#filter18_di_2_82)">
<rect x="279" y="502" width="62" height="96" rx="12" fill="#19ACFF"/>
<path d="M318.516 544.168V547.496H301.492V544.168H318.516ZM318.516 551.368V554.696H301.492V551.368H318.516Z" fill="#B2DAFF"/>
</g>
<path d="M73.3158 29.908L66.0438 55H62.3718L56.5398 34.804L50.4918 55L46.8558 55.036L39.8358 29.908H43.3278L48.7998 51.184L54.8478 29.908H58.5198L64.2798 51.112L69.7878 29.908H73.3158ZM78.5929 32.068C77.9689 32.068 77.4409 31.852 77.0089 31.42C76.5769 30.988 76.3609 30.46 76.3609 29.836C76.3609 29.212 76.5769 28.684 77.0089 28.252C77.4409 27.82 77.9689 27.604 78.5929 27.604C79.1929 27.604 79.6969 27.82 80.1049 28.252C80.5369 28.684 80.7529 29.212 80.7529 29.836C80.7529 30.46 80.5369 30.988 80.1049 31.42C79.6969 31.852 79.1929 32.068 78.5929 32.068ZM80.1769 35.272V55H76.9009V35.272H80.1769ZM95.3723 34.912C97.7723 34.912 99.7163 35.644 101.204 37.108C102.692 38.548 103.436 40.636 103.436 43.372V55H100.196V43.84C100.196 41.872 99.7043 40.372 98.7203 39.34C97.7363 38.284 96.3923 37.756 94.6883 37.756C92.9603 37.756 91.5803 38.296 90.5483 39.376C89.5403 40.456 89.0363 42.028 89.0363 44.092V55H85.7603V35.272H89.0363V38.08C89.6843 37.072 90.5603 36.292 91.6643 35.74C92.7923 35.188 94.0283 34.912 95.3723 34.912ZM115.772 55.324C114.26 55.324 112.904 55.072 111.704 54.568C110.504 54.04 109.556 53.32 108.86 52.408C108.164 51.472 107.78 50.404 107.708 49.204H111.092C111.188 50.188 111.644 50.992 112.46 51.616C113.3 52.24 114.392 52.552 115.736 52.552C116.984 52.552 117.968 52.276 118.688 51.724C119.408 51.172 119.768 50.476 119.768 49.636C119.768 48.772 119.384 48.136 118.616 47.728C117.848 47.296 116.66 46.876 115.052 46.468C113.588 46.084 112.388 45.7 111.452 45.316C110.54 44.908 109.748 44.32 109.076 43.552C108.428 42.76 108.104 41.728 108.104 40.456C108.104 39.448 108.404 38.524 109.004 37.684C109.604 36.844 110.456 36.184 111.56 35.704C112.664 35.2 113.924 34.948 115.34 34.948C117.524 34.948 119.288 35.5 120.632 36.604C121.976 37.708 122.696 39.22 122.792 41.14H119.516C119.444 40.108 119.024 39.28 118.256 38.656C117.512 38.032 116.504 37.72 115.232 37.72C114.056 37.72 113.12 37.972 112.424 38.476C111.728 38.98 111.38 39.64 111.38 40.456C111.38 41.104 111.584 41.644 111.992 42.076C112.424 42.484 112.952 42.82 113.576 43.084C114.224 43.324 115.112 43.6 116.24 43.912C117.656 44.296 118.808 44.68 119.696 45.064C120.584 45.424 121.34 45.976 121.964 46.72C122.612 47.464 122.948 48.436 122.972 49.636C122.972 50.716 122.672 51.688 122.072 52.552C121.472 53.416 120.62 54.1 119.516 54.604C118.436 55.084 117.188 55.324 115.772 55.324ZM131.592 37.972V49.6C131.592 50.56 131.796 51.244 132.204 51.652C132.612 52.036 133.32 52.228 134.328 52.228H136.74V55H133.788C131.964 55 130.596 54.58 129.684 53.74C128.772 52.9 128.316 51.52 128.316 49.6V37.972H125.76V35.272H128.316V30.304H131.592V35.272H136.74V37.972H131.592ZM149.314 55.324C147.466 55.324 145.786 54.904 144.274 54.064C142.786 53.224 141.61 52.036 140.746 50.5C139.906 48.94 139.486 47.14 139.486 45.1C139.486 43.084 139.918 41.308 140.782 39.772C141.67 38.212 142.87 37.024 144.382 36.208C145.894 35.368 147.586 34.948 149.458 34.948C151.33 34.948 153.022 35.368 154.534 36.208C156.046 37.024 157.234 38.2 158.098 39.736C158.986 41.272 159.43 43.06 159.43 45.1C159.43 47.14 158.974 48.94 158.062 50.5C157.174 52.036 155.962 53.224 154.426 54.064C152.89 54.904 151.186 55.324 149.314 55.324ZM149.314 52.444C150.49 52.444 151.594 52.168 152.626 51.616C153.658 51.064 154.486 50.236 155.11 49.132C155.758 48.028 156.082 46.684 156.082 45.1C156.082 43.516 155.77 42.172 155.146 41.068C154.522 39.964 153.706 39.148 152.698 38.62C151.69 38.068 150.598 37.792 149.422 37.792C148.222 37.792 147.118 38.068 146.11 38.62C145.126 39.148 144.334 39.964 143.734 41.068C143.134 42.172 142.834 43.516 142.834 45.1C142.834 46.708 143.122 48.064 143.698 49.168C144.298 50.272 145.09 51.1 146.074 51.652C147.058 52.18 148.138 52.444 149.314 52.444ZM173.349 34.912C175.749 34.912 177.693 35.644 179.181 37.108C180.669 38.548 181.413 40.636 181.413 43.372V55H178.173V43.84C178.173 41.872 177.681 40.372 176.697 39.34C175.713 38.284 174.369 37.756 172.665 37.756C170.937 37.756 169.557 38.296 168.525 39.376C167.517 40.456 167.013 42.028 167.013 44.092V55H163.737V35.272H167.013V38.08C167.661 37.072 168.537 36.292 169.641 35.74C170.769 35.188 172.005 34.912 173.349 34.912Z" fill="black" fill-opacity="0.9"/>
<path d="M73.3158 29.908L73.5559 29.9776L73.6486 29.658H73.3158V29.908ZM66.0438 55V55.25H66.2316L66.2839 55.0696L66.0438 55ZM62.3718 55L62.1316 55.0694L62.1838 55.25H62.3718V55ZM56.5398 34.804L56.78 34.7346L56.5442 33.918L56.3003 34.7323L56.5398 34.804ZM50.4918 55L50.4943 55.25L50.6785 55.2482L50.7313 55.0717L50.4918 55ZM46.8558 55.036L46.615 55.1033L46.6666 55.2879L46.8583 55.286L46.8558 55.036ZM39.8358 29.908V29.658H39.5064L39.595 29.9753L39.8358 29.908ZM43.3278 29.908L43.5699 29.8457L43.5217 29.658H43.3278V29.908ZM48.7998 51.184L48.5577 51.2463L48.7877 52.1408L49.0403 51.2524L48.7998 51.184ZM54.8478 29.908V29.658H54.659L54.6073 29.8396L54.8478 29.908ZM58.5198 29.908L58.7611 29.8425L58.711 29.658H58.5198V29.908ZM64.2798 51.112L64.0386 51.1775L64.2852 52.0856L64.5218 51.1749L64.2798 51.112ZM69.7878 29.908V29.658H69.5945L69.5458 29.8451L69.7878 29.908ZM73.0757 29.8384L65.8037 54.9304L66.2839 55.0696L73.5559 29.9776L73.0757 29.8384ZM66.0438 54.75H62.3718V55.25H66.0438V54.75ZM62.612 54.9306L56.78 34.7346L56.2996 34.8734L62.1316 55.0694L62.612 54.9306ZM56.3003 34.7323L50.2523 54.9283L50.7313 55.0717L56.7793 34.8757L56.3003 34.7323ZM50.4893 54.75L46.8533 54.786L46.8583 55.286L50.4943 55.25L50.4893 54.75ZM47.0966 54.9687L40.0766 29.8407L39.595 29.9753L46.615 55.1033L47.0966 54.9687ZM39.8358 30.158H43.3278V29.658H39.8358V30.158ZM43.0857 29.9703L48.5577 51.2463L49.0419 51.1217L43.5699 29.8457L43.0857 29.9703ZM49.0403 51.2524L55.0883 29.9764L54.6073 29.8396L48.5593 51.1156L49.0403 51.2524ZM54.8478 30.158H58.5198V29.658H54.8478V30.158ZM58.2786 29.9735L64.0386 51.1775L64.5211 51.0465L58.7611 29.8425L58.2786 29.9735ZM64.5218 51.1749L70.0298 29.9709L69.5458 29.8451L64.0378 51.0491L64.5218 51.1749ZM69.7878 30.158H73.3158V29.658H69.7878V30.158ZM77.0089 31.42L77.1857 31.2432L77.1857 31.2432L77.0089 31.42ZM77.0089 28.252L77.1857 28.4288L77.1857 28.4288L77.0089 28.252ZM80.1049 28.252L79.9231 28.4237L79.9281 28.4288L80.1049 28.252ZM80.1049 31.42L79.9281 31.2432L79.9232 31.2483L80.1049 31.42ZM80.1769 35.272H80.4269V35.022H80.1769V35.272ZM80.1769 55V55.25H80.4269V55H80.1769ZM76.9009 55H76.6509V55.25H76.9009V55ZM76.9009 35.272V35.022H76.6509V35.272H76.9009ZM78.5929 31.818C78.0336 31.818 77.5697 31.6272 77.1857 31.2432L76.8321 31.5968C77.3121 32.0768 77.9042 32.318 78.5929 32.318V31.818ZM77.1857 31.2432C76.8017 30.8592 76.6109 30.3953 76.6109 29.836H76.1109C76.1109 30.5247 76.3521 31.1168 76.8321 31.5968L77.1857 31.2432ZM76.6109 29.836C76.6109 29.2767 76.8017 28.8128 77.1857 28.4288L76.8321 28.0752C76.3521 28.5552 76.1109 29.1473 76.1109 29.836H76.6109ZM77.1857 28.4288C77.5697 28.0448 78.0336 27.854 78.5929 27.854V27.354C77.9042 27.354 77.3121 27.5952 76.8321 28.0752L77.1857 28.4288ZM78.5929 27.854C79.1249 27.854 79.5629 28.0422 79.9232 28.4237L80.2867 28.0803C79.8309 27.5978 79.2609 27.354 78.5929 27.354V27.854ZM79.9281 28.4288C80.3121 28.8128 80.5029 29.2767 80.5029 29.836H81.0029C81.0029 29.1473 80.7617 28.5552 80.2817 28.0752L79.9281 28.4288ZM80.5029 29.836C80.5029 30.3953 80.3121 30.8592 79.9281 31.2432L80.2817 31.5968C80.7617 31.1168 81.0029 30.5247 81.0029 29.836H80.5029ZM79.9232 31.2483C79.5629 31.6298 79.1249 31.818 78.5929 31.818V32.318C79.2609 32.318 79.8309 32.0742 80.2867 31.5917L79.9232 31.2483ZM79.9269 35.272V55H80.4269V35.272H79.9269ZM80.1769 54.75H76.9009V55.25H80.1769V54.75ZM77.1509 55V35.272H76.6509V55H77.1509ZM76.9009 35.522H80.1769V35.022H76.9009V35.522ZM101.204 37.108L101.029 37.2862L101.03 37.2877L101.204 37.108ZM103.436 55V55.25H103.686V55H103.436ZM100.196 55H99.9463V55.25H100.196V55ZM98.7203 39.34L98.5374 39.5104L98.5393 39.5125L98.7203 39.34ZM90.5483 39.376L90.3675 39.2033L90.3655 39.2054L90.5483 39.376ZM89.0363 55V55.25H89.2863V55H89.0363ZM85.7603 55H85.5103V55.25H85.7603V55ZM85.7603 35.272V35.022H85.5103V35.272H85.7603ZM89.0363 35.272H89.2863V35.022H89.0363V35.272ZM89.0363 38.08H88.7863V38.9312L89.2466 38.2152L89.0363 38.08ZM91.6643 35.74L91.5544 35.5154L91.5525 35.5164L91.6643 35.74ZM95.3723 35.162C97.7173 35.162 99.5948 35.8752 101.029 37.2862L101.38 36.9298C99.8378 35.4128 97.8273 34.662 95.3723 34.662V35.162ZM101.03 37.2877C102.456 38.6668 103.186 40.6811 103.186 43.372H103.686C103.686 40.5909 102.929 38.4292 101.378 36.9283L101.03 37.2877ZM103.186 43.372V55H103.686V43.372H103.186ZM103.436 54.75H100.196V55.25H103.436V54.75ZM100.446 55V43.84H99.9463V55H100.446ZM100.446 43.84C100.446 41.8325 99.9441 40.2612 98.9012 39.1675L98.5393 39.5125C99.4645 40.4828 99.9463 41.9115 99.9463 43.84H100.446ZM98.9032 39.1696C97.8633 38.0536 96.448 37.506 94.6883 37.506V38.006C96.3365 38.006 97.6092 38.5144 98.5374 39.5104L98.9032 39.1696ZM94.6883 37.506C92.9037 37.506 91.4542 38.0661 90.3675 39.2033L90.729 39.5487C91.7064 38.5259 93.0169 38.006 94.6883 38.006V37.506ZM90.3655 39.2054C89.2997 40.3474 88.7863 41.99 88.7863 44.092H89.2863C89.2863 42.066 89.7809 40.5646 90.731 39.5466L90.3655 39.2054ZM88.7863 44.092V55H89.2863V44.092H88.7863ZM89.0363 54.75H85.7603V55.25H89.0363V54.75ZM86.0103 55V35.272H85.5103V55H86.0103ZM85.7603 35.522H89.0363V35.022H85.7603V35.522ZM88.7863 35.272V38.08H89.2863V35.272H88.7863ZM89.2466 38.2152C89.8695 37.2461 90.711 36.4961 91.7761 35.9636L91.5525 35.5164C90.4096 36.0878 89.499 36.8979 88.826 37.9448L89.2466 38.2152ZM91.7742 35.9646C92.8656 35.4305 94.0636 35.162 95.3723 35.162V34.662C93.9929 34.662 92.719 34.9455 91.5544 35.5154L91.7742 35.9646ZM111.704 54.568L111.603 54.7969L111.607 54.7985L111.704 54.568ZM108.86 52.408L108.659 52.5572L108.661 52.5597L108.86 52.408ZM107.708 49.204V48.954H107.442L107.458 49.219L107.708 49.204ZM111.092 49.204L111.34 49.1797L111.318 48.954H111.092V49.204ZM112.46 51.616L112.308 51.8146L112.311 51.8167L112.46 51.616ZM118.616 47.728L118.493 47.946L118.498 47.9488L118.616 47.728ZM115.052 46.468L114.988 46.7098L114.99 46.7103L115.052 46.468ZM111.452 45.316L111.349 45.5443L111.357 45.5473L111.452 45.316ZM109.076 43.552L108.882 43.7104L108.887 43.7166L109.076 43.552ZM109.004 37.684L108.8 37.5387L108.8 37.5387L109.004 37.684ZM111.56 35.704L111.659 35.9333L111.663 35.9314L111.56 35.704ZM122.792 41.14V41.39H123.054L123.041 41.1275L122.792 41.14ZM119.516 41.14L119.266 41.1574L119.282 41.39H119.516V41.14ZM118.256 38.656L118.095 38.8476L118.098 38.85L118.256 38.656ZM112.424 38.476L112.277 38.2735L112.277 38.2735L112.424 38.476ZM111.992 42.076L111.81 42.2477L111.815 42.2528L111.82 42.2578L111.992 42.076ZM113.576 43.084L113.478 43.3145L113.489 43.3184L113.576 43.084ZM116.24 43.912L116.173 44.153L116.174 44.1533L116.24 43.912ZM119.696 45.064L119.596 45.2935L119.602 45.2957L119.696 45.064ZM121.964 46.72L121.772 46.8807L121.775 46.8842L121.964 46.72ZM122.972 49.636H123.222L123.222 49.631L122.972 49.636ZM122.072 52.552L121.866 52.4094L121.866 52.4094L122.072 52.552ZM119.516 54.604L119.617 54.8325L119.619 54.8314L119.516 54.604ZM115.772 55.074C114.288 55.074 112.965 54.8267 111.8 54.3375L111.607 54.7985C112.842 55.3173 114.232 55.574 115.772 55.574V55.074ZM111.804 54.3392C110.637 53.8257 109.725 53.1302 109.058 52.2563L108.661 52.5597C109.386 53.5098 110.37 54.2543 111.603 54.7968L111.804 54.3392ZM109.06 52.2588C108.394 51.3631 108.026 50.3421 107.957 49.189L107.458 49.219C107.533 50.4659 107.933 51.5809 108.659 52.5572L109.06 52.2588ZM107.708 49.454H111.092V48.954H107.708V49.454ZM110.843 49.2283C110.946 50.2843 111.439 51.1503 112.308 51.8146L112.611 51.4174C111.848 50.8337 111.429 50.0917 111.34 49.1797L110.843 49.2283ZM112.311 51.8167C113.205 52.4808 114.353 52.802 115.736 52.802V52.302C114.43 52.302 113.395 51.9992 112.609 51.4153L112.311 51.8167ZM115.736 52.802C117.018 52.802 118.062 52.5184 118.84 51.9224L118.536 51.5256C117.873 52.0336 116.949 52.302 115.736 52.302V52.802ZM118.84 51.9224C119.616 51.3275 120.018 50.5607 120.018 49.636H119.518C119.518 50.3913 119.2 51.0165 118.536 51.5256L118.84 51.9224ZM120.018 49.636C120.018 49.166 119.913 48.7448 119.694 48.3818C119.475 48.0189 119.15 47.7288 118.733 47.5072L118.498 47.9488C118.849 48.1352 119.101 48.3671 119.266 48.6402C119.43 48.9132 119.518 49.242 119.518 49.636H120.018ZM118.738 47.5101C117.941 47.0616 116.727 46.6352 115.113 46.2257L114.99 46.7103C116.592 47.1168 117.754 47.5304 118.493 47.9459L118.738 47.5101ZM115.115 46.2262C113.657 45.8438 112.469 45.463 111.547 45.0847L111.357 45.5473C112.307 45.937 113.518 46.3242 114.988 46.7098L115.115 46.2262ZM111.554 45.0878C110.675 44.6949 109.913 44.1288 109.264 43.3874L108.887 43.7166C109.583 44.5112 110.404 45.1211 111.35 45.5442L111.554 45.0878ZM109.269 43.3937C108.666 42.6564 108.354 41.6847 108.354 40.456H107.854C107.854 41.7713 108.189 42.8636 108.882 43.7103L109.269 43.3937ZM108.354 40.456C108.354 39.5014 108.637 38.628 109.207 37.8293L108.8 37.5387C108.171 38.42 107.854 39.3946 107.854 40.456H108.354ZM109.207 37.8293C109.777 37.0319 110.59 36.3982 111.659 35.9333L111.46 35.4747C110.321 35.9698 109.431 36.6561 108.8 37.5387L109.207 37.8293ZM111.663 35.9314C112.73 35.4446 113.954 35.198 115.34 35.198V34.698C113.894 34.698 112.597 34.9554 111.456 35.4766L111.663 35.9314ZM115.34 35.198C117.481 35.198 119.184 35.7385 120.473 36.7972L120.79 36.4108C119.391 35.2615 117.566 34.698 115.34 34.698V35.198ZM120.473 36.7972C121.756 37.8515 122.449 39.2946 122.542 41.1525L123.041 41.1275C122.942 39.1454 122.195 37.5645 120.79 36.4108L120.473 36.7972ZM122.792 40.89H119.516V41.39H122.792V40.89ZM119.765 41.1226C119.688 40.0251 119.238 39.1318 118.413 38.462L118.098 38.85C118.81 39.4282 119.199 40.1909 119.266 41.1574L119.765 41.1226ZM118.416 38.4645C117.615 37.7923 116.544 37.47 115.232 37.47V37.97C116.463 37.97 117.408 38.2717 118.095 38.8475L118.416 38.4645ZM115.232 37.47C114.022 37.47 113.029 37.7291 112.277 38.2735L112.57 38.6785C113.21 38.2149 114.089 37.97 115.232 37.97V37.47ZM112.277 38.2735C111.52 38.8216 111.13 39.555 111.13 40.456H111.63C111.63 39.725 111.935 39.1384 112.57 38.6785L112.277 38.2735ZM111.13 40.456C111.13 41.1615 111.354 41.7649 111.81 42.2477L112.173 41.9043C111.813 41.5231 111.63 41.0465 111.63 40.456H111.13ZM111.82 42.2578C112.276 42.6889 112.831 43.0402 113.478 43.3142L113.673 42.8538C113.073 42.5998 112.571 42.2791 112.163 41.8942L111.82 42.2578ZM113.489 43.3184C114.146 43.562 115.042 43.8402 116.173 44.153L116.306 43.671C115.181 43.3598 114.301 43.086 113.662 42.8496L113.489 43.3184ZM116.174 44.1533C117.584 44.5356 118.723 44.916 119.596 45.2935L119.795 44.8345C118.892 44.444 117.727 44.0564 116.305 43.6707L116.174 44.1533ZM119.602 45.2957C120.451 45.6401 121.174 46.1675 121.772 46.8807L122.155 46.5593C121.505 45.7845 120.716 45.2079 119.79 44.8323L119.602 45.2957ZM121.775 46.8842C122.377 47.575 122.699 48.4864 122.722 49.641L123.222 49.631C123.197 48.3856 122.847 47.353 122.152 46.5558L121.775 46.8842ZM122.722 49.636C122.722 50.6665 122.436 51.5884 121.866 52.4094L122.277 52.6946C122.907 51.7876 123.222 50.7655 123.222 49.636H122.722ZM121.866 52.4094C121.296 53.2312 120.481 53.8883 119.412 54.3766L119.619 54.8314C120.758 54.3117 121.648 53.6008 122.277 52.6946L121.866 52.4094ZM119.414 54.3755C118.372 54.8388 117.159 55.074 115.772 55.074V55.574C117.216 55.574 118.5 55.3292 119.617 54.8325L119.414 54.3755ZM131.592 37.972V37.722H131.342V37.972H131.592ZM132.204 51.652L132.027 51.8289L132.033 51.834L132.204 51.652ZM136.74 52.228H136.99V51.978H136.74V52.228ZM136.74 55V55.25H136.99V55H136.74ZM128.316 37.972H128.566V37.722H128.316V37.972ZM125.76 37.972H125.51V38.222H125.76V37.972ZM125.76 35.272V35.022H125.51V35.272H125.76ZM128.316 35.272V35.522H128.566V35.272H128.316ZM128.316 30.304V30.054H128.066V30.304H128.316ZM131.592 30.304H131.842V30.054H131.592V30.304ZM131.592 35.272H131.342V35.522H131.592V35.272ZM136.74 35.272H136.99V35.022H136.74V35.272ZM136.74 37.972V38.222H136.99V37.972H136.74ZM131.342 37.972V49.6H131.842V37.972H131.342ZM131.342 49.6C131.342 50.5847 131.55 51.351 132.027 51.8288L132.381 51.4752C132.043 51.137 131.842 50.5353 131.842 49.6H131.342ZM132.033 51.834C132.512 52.2854 133.303 52.478 134.328 52.478V51.978C133.338 51.978 132.712 51.7866 132.376 51.4699L132.033 51.834ZM134.328 52.478H136.74V51.978H134.328V52.478ZM136.49 52.228V55H136.99V52.228H136.49ZM136.74 54.75H133.788V55.25H136.74V54.75ZM133.788 54.75C131.998 54.75 130.702 54.3373 129.854 53.5561L129.515 53.9239C130.491 54.8227 131.931 55.25 133.788 55.25V54.75ZM129.854 53.5561C129.015 52.7841 128.566 51.488 128.566 49.6H128.066C128.066 51.552 128.529 53.0159 129.515 53.9239L129.854 53.5561ZM128.566 49.6V37.972H128.066V49.6H128.566ZM128.316 37.722H125.76V38.222H128.316V37.722ZM126.01 37.972V35.272H125.51V37.972H126.01ZM125.76 35.522H128.316V35.022H125.76V35.522ZM128.566 35.272V30.304H128.066V35.272H128.566ZM128.316 30.554H131.592V30.054H128.316V30.554ZM131.342 30.304V35.272H131.842V30.304H131.342ZM131.592 35.522H136.74V35.022H131.592V35.522ZM136.49 35.272V37.972H136.99V35.272H136.49ZM136.74 37.722H131.592V38.222H136.74V37.722ZM144.274 54.064L144.151 54.2817L144.152 54.2825L144.274 54.064ZM140.746 50.5L140.525 50.6185L140.528 50.6226L140.746 50.5ZM140.782 39.772L140.564 39.6483L140.564 39.6494L140.782 39.772ZM144.382 36.208L144.5 36.428L144.503 36.4265L144.382 36.208ZM154.534 36.208L154.412 36.4266L154.415 36.428L154.534 36.208ZM158.098 39.736L157.88 39.8586L157.881 39.8611L158.098 39.736ZM158.062 50.5L157.846 50.3738L157.845 50.3749L158.062 50.5ZM154.426 54.064L154.545 54.2833L154.545 54.2833L154.426 54.064ZM155.11 49.132L154.894 49.0054L154.892 49.009L155.11 49.132ZM152.698 38.62L152.577 38.8393L152.581 38.8415L152.698 38.62ZM146.11 38.62L146.228 38.8403L146.23 38.8393L146.11 38.62ZM143.734 41.068L143.953 41.1874L143.953 41.1874L143.734 41.068ZM143.698 49.168L143.476 49.2837L143.478 49.2874L143.698 49.168ZM146.074 51.652L145.951 51.8701L145.955 51.8723L146.074 51.652ZM149.314 55.074C147.505 55.074 145.867 54.6634 144.395 53.8455L144.152 54.2825C145.704 55.1446 147.426 55.574 149.314 55.574V55.074ZM144.396 53.8463C142.949 53.0295 141.806 51.875 140.963 50.3774L140.528 50.6226C141.413 52.197 142.622 53.4185 144.151 54.2817L144.396 53.8463ZM140.966 50.3815C140.148 48.8631 139.736 47.1049 139.736 45.1H139.236C139.236 47.1751 139.663 49.0169 140.525 50.6185L140.966 50.3815ZM139.736 45.1C139.736 43.1207 140.159 41.388 140.999 39.8946L140.564 39.6494C139.676 41.228 139.236 43.0473 139.236 45.1H139.736ZM140.999 39.8957C141.865 38.3745 143.031 37.2207 144.5 36.428L144.263 35.988C142.708 36.8273 141.474 38.0495 140.564 39.6483L140.999 39.8957ZM144.503 36.4265C145.975 35.6088 147.624 35.198 149.458 35.198V34.698C147.547 34.698 145.812 35.1271 144.26 35.9895L144.503 36.4265ZM149.458 35.198C151.291 35.198 152.94 35.6088 154.412 36.4265L154.655 35.9895C153.103 35.1271 151.368 34.698 149.458 34.698V35.198ZM154.415 36.428C155.884 37.221 157.038 38.3626 157.88 39.8586L158.315 39.6134C157.429 38.0374 156.207 36.827 154.652 35.988L154.415 36.428ZM157.881 39.8611C158.744 41.3537 159.18 43.0973 159.18 45.1H159.68C159.68 43.0227 159.227 41.1903 158.314 39.6109L157.881 39.8611ZM159.18 45.1C159.18 47.1015 158.733 48.8568 157.846 50.3738L158.277 50.6262C159.214 49.0231 159.68 47.1785 159.68 45.1H159.18ZM157.845 50.3749C156.98 51.8718 155.801 53.0269 154.306 53.8447L154.545 54.2833C156.122 53.4211 157.367 52.2002 158.278 50.6251L157.845 50.3749ZM154.306 53.8447C152.809 54.6632 151.147 55.074 149.314 55.074V55.574C151.224 55.574 152.97 55.1448 154.545 54.2833L154.306 53.8447ZM149.314 52.694C150.53 52.694 151.675 52.4079 152.743 51.8364L152.508 51.3956C151.512 51.9281 150.449 52.194 149.314 52.194V52.694ZM152.743 51.8364C153.821 51.2602 154.682 50.3967 155.327 49.255L154.892 49.009C154.289 50.0753 153.494 50.8678 152.508 51.3956L152.743 51.8364ZM155.325 49.2585C156 48.108 156.332 46.718 156.332 45.1H155.832C155.832 46.65 155.515 47.948 154.894 49.0054L155.325 49.2585ZM156.332 45.1C156.332 43.4835 156.013 42.0948 155.363 40.945L154.928 41.191C155.526 42.2492 155.832 43.5485 155.832 45.1H156.332ZM155.363 40.945C154.718 39.804 153.869 38.9514 152.814 38.3985L152.581 38.8415C153.542 39.3446 154.325 40.124 154.928 41.191L155.363 40.945ZM152.818 38.4007C151.772 37.8281 150.638 37.542 149.422 37.542V38.042C150.557 38.042 151.607 38.3079 152.577 38.8393L152.818 38.4007ZM149.422 37.542C148.181 37.542 147.036 37.8277 145.989 38.4007L146.23 38.8393C147.199 38.3083 148.262 38.042 149.422 38.042V37.542ZM145.991 38.3997C144.959 38.9536 144.134 39.8074 143.514 40.9486L143.953 41.1874C144.533 40.1206 145.292 39.3424 146.228 38.8403L145.991 38.3997ZM143.514 40.9486C142.889 42.0976 142.584 43.485 142.584 45.1H143.084C143.084 43.547 143.378 42.2464 143.953 41.1874L143.514 40.9486ZM142.584 45.1C142.584 46.7369 142.877 48.1351 143.476 49.2836L143.919 49.0524C143.366 47.9929 143.084 46.6791 143.084 45.1H142.584ZM143.478 49.2874C144.098 50.4279 144.922 51.2924 145.951 51.87L146.196 51.434C145.257 50.9076 144.497 50.1161 143.917 49.0486L143.478 49.2874ZM145.955 51.8723C146.978 52.4208 148.099 52.694 149.314 52.694V52.194C148.176 52.194 147.137 51.9392 146.192 51.4317L145.955 51.8723ZM179.181 37.108L179.006 37.2862L179.007 37.2877L179.181 37.108ZM181.413 55V55.25H181.663V55H181.413ZM178.173 55H177.923V55.25H178.173V55ZM176.697 39.34L176.514 39.5104L176.516 39.5125L176.697 39.34ZM168.525 39.376L168.344 39.2033L168.342 39.2054L168.525 39.376ZM167.013 55V55.25H167.263V55H167.013ZM163.737 55H163.487V55.25H163.737V55ZM163.737 35.272V35.022H163.487V35.272H163.737ZM167.013 35.272H167.263V35.022H167.013V35.272ZM167.013 38.08H166.763V38.9312L167.223 38.2152L167.013 38.08ZM169.641 35.74L169.531 35.5154L169.529 35.5164L169.641 35.74ZM173.349 35.162C175.694 35.162 177.571 35.8752 179.006 37.2862L179.356 36.9298C177.814 35.4128 175.804 34.662 173.349 34.662V35.162ZM179.007 37.2877C180.432 38.6668 181.163 40.6811 181.163 43.372H181.663C181.663 40.5909 180.906 38.4292 179.355 36.9283L179.007 37.2877ZM181.163 43.372V55H181.663V43.372H181.163ZM181.413 54.75H178.173V55.25H181.413V54.75ZM178.423 55V43.84H177.923V55H178.423ZM178.423 43.84C178.423 41.8325 177.921 40.2612 176.878 39.1675L176.516 39.5125C177.441 40.4828 177.923 41.9115 177.923 43.84H178.423ZM176.88 39.1696C175.84 38.0536 174.425 37.506 172.665 37.506V38.006C174.313 38.006 175.586 38.5144 176.514 39.5104L176.88 39.1696ZM172.665 37.506C170.88 37.506 169.431 38.0661 168.344 39.2033L168.706 39.5487C169.683 38.5259 170.993 38.006 172.665 38.006V37.506ZM168.342 39.2054C167.276 40.3474 166.763 41.99 166.763 44.092H167.263C167.263 42.066 167.757 40.5646 168.708 39.5466L168.342 39.2054ZM166.763 44.092V55H167.263V44.092H166.763ZM167.013 54.75H163.737V55.25H167.013V54.75ZM163.987 55V35.272H163.487V55H163.987ZM163.737 35.522H167.013V35.022H163.737V35.522ZM166.763 35.272V38.08H167.263V35.272H166.763ZM167.223 38.2152C167.846 37.2461 168.688 36.4961 169.753 35.9636L169.529 35.5164C168.386 36.0878 167.476 36.8979 166.803 37.9448L167.223 38.2152ZM169.751 35.9646C170.842 35.4305 172.04 35.162 173.349 35.162V34.662C171.969 34.662 170.696 34.9455 169.531 35.5154L169.751 35.9646Z" fill="black"/>
</g>
</g>
<defs>
<filter id="filter0_b_2_82" x="-102" y="-102" width="580" height="827" filterUnits="userSpaceOnUse" color-interpolation-filters="sRGB">
<feFlood flood-opacity="0" result="BackgroundImageFix"/>
<feGaussianBlur in="BackgroundImage" stdDeviation="51"/>
<feComposite in2="SourceAlpha" operator="in" result="effect1_backgroundBlur_2_82"/>
<feBlend mode="normal" in="SourceGraphic" in2="effect1_backgroundBlur_2_82" result="shape"/>
</filter>
<filter id="filter1_b_2_82" x="21" y="532" width="168" height="84" filterUnits="userSpaceOnUse" color-interpolation-filters="sRGB">
<feFlood flood-opacity="0" result="BackgroundImageFix"/>
<feGaussianBlur in="BackgroundImage" stdDeviation="6"/>
<feComposite in2="SourceAlpha" operator="in" result="effect1_backgroundBlur_2_82"/>
<feBlend mode="normal" in="SourceGraphic" in2="effect1_backgroundBlur_2_82" result="shape"/>
</filter>
<filter id="filter2_i_2_82" x="279" y="384" width="62" height="96" filterUnits="userSpaceOnUse" color-interpolation-filters="sRGB">
<feFlood flood-opacity="0" result="BackgroundImageFix"/>
<feBlend mode="normal" in="SourceGraphic" in2="BackgroundImageFix" result="shape"/>
<feColorMatrix in="SourceAlpha" type="matrix" values="0 0 0 0 0 0 0 0 0 0 0 0 0 0 0 0 0 0 127 0" result="hardAlpha"/>
<feOffset/>
<feGaussianBlur stdDeviation="4.5"/>
<feComposite in2="hardAlpha" operator="arithmetic" k2="-1" k3="1"/>
<feColorMatrix type="matrix" values="0 0 0 0 1 0 0 0 0 1 0 0 0 0 1 0 0 0 0.43 0"/>
<feBlend mode="normal" in2="shape" result="effect1_innerShadow_2_82"/>
</filter>
<filter id="filter3_b_2_82" x="185" y="530" width="86" height="86" filterUnits="userSpaceOnUse" color-interpolation-filters="sRGB">
<feFlood flood-opacity="0" result="BackgroundImageFix"/>
<feGaussianBlur in="BackgroundImage" stdDeviation="6"/>
<feComposite in2="SourceAlpha" operator="in" result="effect1_backgroundBlur_2_82"/>
<feBlend mode="normal" in="SourceGraphic" in2="effect1_backgroundBlur_2_82" result="shape"/>
</filter>
<filter id="filter4_b_2_82" x="185" y="442" width="86" height="84" filterUnits="userSpaceOnUse" color-interpolation-filters="sRGB">
<feFlood flood-opacity="0" result="BackgroundImageFix"/>
<feGaussianBlur in="BackgroundImage" stdDeviation="6"/>
<feComposite in2="SourceAlpha" operator="in" result="effect1_backgroundBlur_2_82"/>
<feBlend mode="normal" in="SourceGraphic" in2="effect1_backgroundBlur_2_82" result="shape"/>
</filter>
<filter id="filter5_b_2_82" x="21" y="442" width="86" height="84" filterUnits="userSpaceOnUse" color-interpolation-filters="sRGB">
<feFlood flood-opacity="0" result="BackgroundImageFix"/>
<feGaussianBlur in="BackgroundImage" stdDeviation="6"/>
<feComposite in2="SourceAlpha" operator="in" result="effect1_backgroundBlur_2_82"/>
<feBlend mode="normal" in="SourceGraphic" in2="effect1_backgroundBlur_2_82" result="shape"/>
</filter>
<filter id="filter6_b_2_82" x="103" y="442" width="86" height="84" filterUnits="userSpaceOnUse" color-interpolation-filters="sRGB">
<feFlood flood-opacity="0" result="BackgroundImageFix"/>
<feGaussianBlur in="BackgroundImage" stdDeviation="6"/>
<feComposite in2="SourceAlpha" operator="in" result="effect1_backgroundBlur_2_82"/>
<feBlend mode="normal" in="SourceGraphic" in2="effect1_backgroundBlur_2_82" result="shape"/>
</filter>
<filter id="filter7_i_2_82" x="279" y="302" width="62" height="60" filterUnits="userSpaceOnUse" color-interpolation-filters="sRGB">
<feFlood flood-opacity="0" result="BackgroundImageFix"/>
<feBlend mode="normal" in="SourceGraphic" in2="BackgroundImageFix" result="shape"/>
<feColorMatrix in="SourceAlpha" type="matrix" values="0 0 0 0 0 0 0 0 0 0 0 0 0 0 0 0 0 0 127 0" result="hardAlpha"/>
<feOffset/>
<feGaussianBlur stdDeviation="4.5"/>
<feComposite in2="hardAlpha" operator="arithmetic" k2="-1" k3="1"/>
<feColorMatrix type="matrix" values="0 0 0 0 1 0 0 0 0 1 0 0 0 0 1 0 0 0 0.43 0"/>
<feBlend mode="normal" in2="shape" result="effect1_innerShadow_2_82"/>
</filter>
<filter id="filter8_b_2_82" x="185" y="290" width="86" height="84" filterUnits="userSpaceOnUse" color-interpolation-filters="sRGB">
<feFlood flood-opacity="0" result="BackgroundImageFix"/>
<feGaussianBlur in="BackgroundImage" stdDeviation="6"/>
<feComposite in2="SourceAlpha" operator="in" result="effect1_backgroundBlur_2_82"/>
<feBlend mode="normal" in="SourceGraphic" in2="effect1_backgroundBlur_2_82" result="shape"/>
</filter>
<filter id="filter9_b_2_82" x="21" y="290" width="86" height="84" filterUnits="userSpaceOnUse" color-interpolation-filters="sRGB">
<feFlood flood-opacity="0" result="BackgroundImageFix"/>
<feGaussianBlur in="BackgroundImage" stdDeviation="6"/>
<feComposite in2="SourceAlpha" operator="in" result="effect1_backgroundBlur_2_82"/>
<feBlend mode="normal" in="SourceGraphic" in2="effect1_backgroundBlur_2_82" result="shape"/>
</filter>
<filter id="filter10_b_2_82" x="103" y="290" width="86" height="84" filterUnits="userSpaceOnUse" color-interpolation-filters="sRGB">
<feFlood flood-opacity="0" result="BackgroundImageFix"/>
<feGaussianBlur in="BackgroundImage" stdDeviation="6"/>
<feComposite in2="SourceAlpha" operator="in" result="effect1_backgroundBlur_2_82"/>
<feBlend mode="normal" in="SourceGraphic" in2="effect1_backgroundBlur_2_82" result="shape"/>
</filter>
<filter id="filter11_b_2_82" x="185" y="366" width="86" height="84" filterUnits="userSpaceOnUse" color-interpolation-filters="sRGB">
<feFlood flood-opacity="0" result="BackgroundImageFix"/>
<feGaussianBlur in="BackgroundImage" stdDeviation="6"/>
<feComposite in2="SourceAlpha" operator="in" result="effect1_backgroundBlur_2_82"/>
<feBlend mode="normal" in="SourceGraphic" in2="effect1_backgroundBlur_2_82" result="shape"/>
</filter>
<filter id="filter12_b_2_82" x="21" y="366" width="86" height="84" filterUnits="userSpaceOnUse" color-interpolation-filters="sRGB">
<feFlood flood-opacity="0" result="BackgroundImageFix"/>
<feGaussianBlur in="BackgroundImage" stdDeviation="6"/>
<feComposite in2="SourceAlpha" operator="in" result="effect1_backgroundBlur_2_82"/>
<feBlend mode="normal" in="SourceGraphic" in2="effect1_backgroundBlur_2_82" result="shape"/>
</filter>
<filter id="filter13_b_2_82" x="103" y="366" width="86" height="84" filterUnits="userSpaceOnUse" color-interpolation-filters="sRGB">
<feFlood flood-opacity="0" result="BackgroundImageFix"/>
<feGaussianBlur in="BackgroundImage" stdDeviation="6"/>
<feComposite in2="SourceAlpha" operator="in" result="effect1_backgroundBlur_2_82"/>
<feBlend mode="normal" in="SourceGraphic" in2="effect1_backgroundBlur_2_82" result="shape"/>
</filter>
<filter id="filter14_i_2_82" x="279" y="218" width="62" height="62" filterUnits="userSpaceOnUse" color-interpolation-filters="sRGB">
<feFlood flood-opacity="0" result="BackgroundImageFix"/>
<feBlend mode="normal" in="SourceGraphic" in2="BackgroundImageFix" result="shape"/>
<feColorMatrix in="SourceAlpha" type="matrix" values="0 0 0 0 0 0 0 0 0 0 0 0 0 0 0 0 0 0 127 0" result="hardAlpha"/>
<feOffset/>
<feGaussianBlur stdDeviation="4.5"/>
<feComposite in2="hardAlpha" operator="arithmetic" k2="-1" k3="1"/>
<feColorMatrix type="matrix" values="0 0 0 0 1 0 0 0 0 1 0 0 0 0 1 0 0 0 0.43 0"/>
<feBlend mode="normal" in2="shape" result="effect1_innerShadow_2_82"/>
</filter>
<filter id="filter15_i_2_82" x="197" y="218" width="62" height="62" filterUnits="userSpaceOnUse" color-interpolation-filters="sRGB">
<feFlood flood-opacity="0" result="BackgroundImageFix"/>
<feBlend mode="normal" in="SourceGraphic" in2="BackgroundImageFix" result="shape"/>
<feColorMatrix in="SourceAlpha" type="matrix" values="0 0 0 0 0 0 0 0 0 0 0 0 0 0 0 0 0 0 127 0" result="hardAlpha"/>
<feOffset/>
<feGaussianBlur stdDeviation="4.5"/>
<feComposite in2="hardAlpha" operator="arithmetic" k2="-1" k3="1"/>
<feColorMatrix type="matrix" values="0 0 0 0 1 0 0 0 0 1 0 0 0 0 1 0 0 0 0.43 0"/>
<feBlend mode="normal" in2="shape" result="effect1_innerShadow_2_82"/>
</filter>
<filter id="filter16_b_2_82" x="21" y="206" width="86" height="86" filterUnits="userSpaceOnUse" color-interpolation-filters="sRGB">
<feFlood flood-opacity="0" result="BackgroundImageFix"/>
<feGaussianBlur in="BackgroundImage" stdDeviation="6"/>
<feComposite in2="SourceAlpha" operator="in" result="effect1_backgroundBlur_2_82"/>
<feBlend mode="normal" in="SourceGraphic" in2="effect1_backgroundBlur_2_82" result="shape"/>
</filter>
<filter id="filter17_b_2_82" x="103" y="207.026" width="86" height="84.9738" filterUnits="userSpaceOnUse" color-interpolation-filters="sRGB">
<feFlood flood-opacity="0" result="BackgroundImageFix"/>
<feGaussianBlur in="BackgroundImage" stdDeviation="6"/>
<feComposite in2="SourceAlpha" operator="in" result="effect1_backgroundBlur_2_82"/>
<feBlend mode="normal" in="SourceGraphic" in2="effect1_backgroundBlur_2_82" result="shape"/>
</filter>
<filter id="filter18_di_2_82" x="247" y="492" width="108" height="142" filterUnits="userSpaceOnUse" color-interpolation-filters="sRGB">
<feFlood flood-opacity="0" result="BackgroundImageFix"/>
<feColorMatrix in="SourceAlpha" type="matrix" values="0 0 0 0 0 0 0 0 0 0 0 0 0 0 0 0 0 0 127 0" result="hardAlpha"/>
<feOffset dx="-9" dy="13"/>
<feGaussianBlur stdDeviation="11.5"/>
<feColorMatrix type="matrix" values="0 0 0 0 0 0 0 0 0 0.64 0 0 0 0 1 0 0 0 0.65 0"/>
<feBlend mode="normal" in2="BackgroundImageFix" result="effect1_dropShadow_2_82"/>
<feBlend mode="normal" in="SourceGraphic" in2="effect1_dropShadow_2_82" result="shape"/>
<feColorMatrix in="SourceAlpha" type="matrix" values="0 0 0 0 0 0 0 0 0 0 0 0 0 0 0 0 0 0 127 0" result="hardAlpha"/>
<feOffset dx="-3" dy="4"/>
<feGaussianBlur stdDeviation="5.5"/>
<feComposite in2="hardAlpha" operator="arithmetic" k2="-1" k3="1"/>
<feColorMatrix type="matrix" values="0 0 0 0 0.691667 0 0 0 0 0.87373 0 0 0 0 1 0 0 0 1 0"/>
<feBlend mode="normal" in2="shape" result="effect2_innerShadow_2_82"/>
</filter>
<linearGradient id="paint0_linear_2_82" x1="-38.1013" y1="-31.0733" x2="236.631" y2="702.839" gradientUnits="userSpaceOnUse">
<stop stop-color="#F7F8FB"/>
<stop offset="1" stop-color="#F7F8FB" stop-opacity="0.19"/>
</linearGradient>
<linearGradient id="paint1_linear_2_82" x1="7.45161" y1="544" x2="73.1539" y2="674.934" gradientUnits="userSpaceOnUse">
<stop stop-color="white" stop-opacity="0.6"/>
<stop offset="1" stop-color="white" stop-opacity="0.4"/>
</linearGradient>
<linearGradient id="paint2_linear_2_82" x1="21.3871" y1="538.5" x2="40.4991" y2="619.264" gradientUnits="userSpaceOnUse">
<stop stop-color="white" stop-opacity="0.85"/>
<stop offset="1" stop-color="white" stop-opacity="0.17"/>
</linearGradient>
<linearGradient id="paint3_linear_2_82" x1="347.5" y1="376" x2="270.5" y2="490" gradientUnits="userSpaceOnUse">
<stop stop-color="#ADD8FF"/>
<stop offset="1" stop-color="#ADD8FF" stop-opacity="0.28"/>
</linearGradient>
<linearGradient id="paint4_linear_2_82" x1="279" y1="486.5" x2="354.5" y2="378" gradientUnits="userSpaceOnUse">
<stop stop-color="white" stop-opacity="0.39"/>
<stop offset="1" stop-color="white" stop-opacity="0"/>
</linearGradient>
<linearGradient id="paint5_linear_2_82" x1="186" y1="542" x2="269.24" y2="611.118" gradientUnits="userSpaceOnUse">
<stop stop-color="white" stop-opacity="0.6"/>
<stop offset="1" stop-color="white" stop-opacity="0.4"/>
</linearGradient>
<linearGradient id="paint6_linear_2_82" x1="192" y1="536.317" x2="229.845" y2="602.952" gradientUnits="userSpaceOnUse">
<stop stop-color="white" stop-opacity="0.85"/>
<stop offset="1" stop-color="white" stop-opacity="0.17"/>
</linearGradient>
<linearGradient id="paint7_linear_2_82" x1="225.202" y1="571" x2="231.243" y2="576.017" gradientUnits="userSpaceOnUse">
<stop stop-color="white" stop-opacity="0.6"/>
<stop offset="1" stop-color="white" stop-opacity="0.4"/>
</linearGradient>
<linearGradient id="paint8_linear_2_82" x1="225.637" y1="570.587" x2="228.384" y2="575.424" gradientUnits="userSpaceOnUse">
<stop stop-color="white" stop-opacity="0.85"/>
<stop offset="1" stop-color="white" stop-opacity="0.17"/>
</linearGradient>
<linearGradient id="paint9_linear_2_82" x1="186" y1="454" x2="267" y2="523.5" gradientUnits="userSpaceOnUse">
<stop stop-color="white" stop-opacity="0.6"/>
<stop offset="1" stop-color="white" stop-opacity="0.4"/>
</linearGradient>
<linearGradient id="paint10_linear_2_82" x1="192" y1="448.5" x2="228" y2="514" gradientUnits="userSpaceOnUse">
<stop stop-color="white" stop-opacity="0.85"/>
<stop offset="1" stop-color="white" stop-opacity="0.17"/>
</linearGradient>
<linearGradient id="paint11_linear_2_82" x1="22" y1="454" x2="103" y2="523.5" gradientUnits="userSpaceOnUse">
<stop stop-color="white" stop-opacity="0.6"/>
<stop offset="1" stop-color="white" stop-opacity="0.4"/>
</linearGradient>
<linearGradient id="paint12_linear_2_82" x1="28" y1="448.5" x2="64" y2="514" gradientUnits="userSpaceOnUse">
<stop stop-color="white" stop-opacity="0.85"/>
<stop offset="1" stop-color="white" stop-opacity="0.17"/>
</linearGradient>
<linearGradient id="paint13_linear_2_82" x1="104" y1="454" x2="185" y2="523.5" gradientUnits="userSpaceOnUse">
<stop stop-color="white" stop-opacity="0.6"/>
<stop offset="1" stop-color="white" stop-opacity="0.4"/>
</linearGradient>
<linearGradient id="paint14_linear_2_82" x1="110" y1="448.5" x2="146" y2="514" gradientUnits="userSpaceOnUse">
<stop stop-color="white" stop-opacity="0.85"/>
<stop offset="1" stop-color="white" stop-opacity="0.17"/>
</linearGradient>
<linearGradient id="paint15_linear_2_82" x1="347.5" y1="297" x2="310.325" y2="385.062" gradientUnits="userSpaceOnUse">
<stop stop-color="#ADD8FF"/>
<stop offset="1" stop-color="#ADD8FF" stop-opacity="0.28"/>
</linearGradient>
<linearGradient id="paint16_linear_2_82" x1="279" y1="366.062" x2="315.81" y2="281.423" gradientUnits="userSpaceOnUse">
<stop stop-color="white" stop-opacity="0.39"/>
<stop offset="1" stop-color="white" stop-opacity="0"/>
</linearGradient>
<linearGradient id="paint17_linear_2_82" x1="186" y1="302" x2="267" y2="371.5" gradientUnits="userSpaceOnUse">
<stop stop-color="white" stop-opacity="0.6"/>
<stop offset="1" stop-color="white" stop-opacity="0.4"/>
</linearGradient>
<linearGradient id="paint18_linear_2_82" x1="192" y1="296.5" x2="228" y2="362" gradientUnits="userSpaceOnUse">
<stop stop-color="white" stop-opacity="0.85"/>
<stop offset="1" stop-color="white" stop-opacity="0.17"/>
</linearGradient>
<linearGradient id="paint19_linear_2_82" x1="22" y1="302" x2="103" y2="371.5" gradientUnits="userSpaceOnUse">
<stop stop-color="white" stop-opacity="0.6"/>
<stop offset="1" stop-color="white" stop-opacity="0.4"/>
</linearGradient>
<linearGradient id="paint20_linear_2_82" x1="28" y1="296.5" x2="64" y2="362" gradientUnits="userSpaceOnUse">
<stop stop-color="white" stop-opacity="0.85"/>
<stop offset="1" stop-color="white" stop-opacity="0.17"/>
</linearGradient>
<linearGradient id="paint21_linear_2_82" x1="104" y1="302" x2="185" y2="371.5" gradientUnits="userSpaceOnUse">
<stop stop-color="white" stop-opacity="0.6"/>
<stop offset="1" stop-color="white" stop-opacity="0.4"/>
</linearGradient>
<linearGradient id="paint22_linear_2_82" x1="110" y1="296.5" x2="146" y2="362" gradientUnits="userSpaceOnUse">
<stop stop-color="white" stop-opacity="0.85"/>
<stop offset="1" stop-color="white" stop-opacity="0.17"/>
</linearGradient>
<linearGradient id="paint23_linear_2_82" x1="186" y1="378" x2="267" y2="447.5" gradientUnits="userSpaceOnUse">
<stop stop-color="white" stop-opacity="0.6"/>
<stop offset="1" stop-color="white" stop-opacity="0.4"/>
</linearGradient>
<linearGradient id="paint24_linear_2_82" x1="192" y1="372.5" x2="228" y2="438" gradientUnits="userSpaceOnUse">
<stop stop-color="white" stop-opacity="0.85"/>
<stop offset="1" stop-color="white" stop-opacity="0.17"/>
</linearGradient>
<linearGradient id="paint25_linear_2_82" x1="22" y1="378" x2="103" y2="447.5" gradientUnits="userSpaceOnUse">
<stop stop-color="white" stop-opacity="0.6"/>
<stop offset="1" stop-color="white" stop-opacity="0.4"/>
</linearGradient>
<linearGradient id="paint26_linear_2_82" x1="28" y1="372.5" x2="64" y2="438" gradientUnits="userSpaceOnUse">
<stop stop-color="white" stop-opacity="0.85"/>
<stop offset="1" stop-color="white" stop-opacity="0.17"/>
</linearGradient>
<linearGradient id="paint27_linear_2_82" x1="115" y1="364.5" x2="196.5" y2="425" gradientUnits="userSpaceOnUse">
<stop stop-color="white" stop-opacity="0.6"/>
<stop offset="1" stop-color="white" stop-opacity="0.4"/>
</linearGradient>
<linearGradient id="paint28_linear_2_82" x1="110" y1="372.5" x2="146" y2="438" gradientUnits="userSpaceOnUse">
<stop stop-color="white" stop-opacity="0.85"/>
<stop offset="1" stop-color="white" stop-opacity="0.17"/>
</linearGradient>
<linearGradient id="paint29_linear_2_82" x1="347.5" y1="212.833" x2="308.208" y2="302.907" gradientUnits="userSpaceOnUse">
<stop stop-color="#ADD8FF"/>
<stop offset="1" stop-color="#ADD8FF" stop-opacity="0.28"/>
</linearGradient>
<linearGradient id="paint30_linear_2_82" x1="279" y1="284.198" x2="317.886" y2="197.67" gradientUnits="userSpaceOnUse">
<stop stop-color="white" stop-opacity="0.39"/>
<stop offset="1" stop-color="white" stop-opacity="0"/>
</linearGradient>
<linearGradient id="paint31_linear_2_82" x1="265.5" y1="212.833" x2="226.208" y2="302.907" gradientUnits="userSpaceOnUse">
<stop stop-color="#ADD8FF"/>
<stop offset="1" stop-color="#ADD8FF" stop-opacity="0.28"/>
</linearGradient>
<linearGradient id="paint32_linear_2_82" x1="197" y1="284.198" x2="235.886" y2="197.67" gradientUnits="userSpaceOnUse">
<stop stop-color="white" stop-opacity="0.39"/>
<stop offset="1" stop-color="white" stop-opacity="0"/>
</linearGradient>
<linearGradient id="paint33_linear_2_82" x1="22" y1="218" x2="105.24" y2="287.118" gradientUnits="userSpaceOnUse">
<stop stop-color="white" stop-opacity="0.6"/>
<stop offset="1" stop-color="white" stop-opacity="0.4"/>
</linearGradient>
<linearGradient id="paint34_linear_2_82" x1="28" y1="212.317" x2="65.8449" y2="278.952" gradientUnits="userSpaceOnUse">
<stop stop-color="white" stop-opacity="0.85"/>
<stop offset="1" stop-color="white" stop-opacity="0.17"/>
</linearGradient>
<linearGradient id="paint35_linear_2_82" x1="104" y1="219.026" x2="186.103" y2="288.348" gradientUnits="userSpaceOnUse">
<stop stop-color="white" stop-opacity="0.6"/>
<stop offset="1" stop-color="white" stop-opacity="0.4"/>
</linearGradient>
<linearGradient id="paint36_linear_2_82" x1="110" y1="213.437" x2="146.898" y2="279.498" gradientUnits="userSpaceOnUse">
<stop stop-color="white" stop-opacity="0.85"/>
<stop offset="1" stop-color="white" stop-opacity="0.17"/>
</linearGradient>
<clipPath id="clip0_2_82">
<rect width="376" height="623" rx="39" fill="white"/>
</clipPath>
</defs>
</svg>
